<svg width="21" height="15" viewBox="0 0 21 15" fill="none" xmlns="http://www.w3.org/2000/svg">
<g clip-path="url(#clip0_1414_4134)">
<path d="M19 0H2C0.89543 0 0 0.89543 0 2V13C0 14.1046 0.89543 15 2 15H19C20.1046 15 21 14.1046 21 13V2C21 0.89543 20.1046 0 19 0Z" fill="#F93939"/>
<path fill-rule="evenodd" clip-rule="evenodd" d="M10.4999 8.75L9.02995 9.523L9.30995 7.886L8.12195 6.726L9.76495 6.489L10.4999 5L11.2349 6.49L12.8779 6.727L11.6879 7.887L11.9679 9.523" fill="#FFDA2C"/>
<path fill-rule="evenodd" clip-rule="evenodd" d="M0 0H7V15H0V0Z" fill="#249F58"/>
<path fill-rule="evenodd" clip-rule="evenodd" d="M14 0H21V15H14V0Z" fill="#FFDA2C"/>
</g>
<defs>
<clipPath id="clip0_1414_4134">
<rect width="21" height="15" fill="white"/>
</clipPath>
</defs>
</svg>
