<svg width="21" height="15" viewBox="0 0 21 15" fill="none" xmlns="http://www.w3.org/2000/svg">
<rect width="21" height="15" fill="#1A47B8"/>
<path fill-rule="evenodd" clip-rule="evenodd" d="M5 5H4.49539C4.21575 5 4 5.22386 4 5.5C4 5.76807 4.22179 6 4.49539 6H5V6.50461C5 6.78425 5.22386 7 5.5 7C5.76807 7 6 6.77821 6 6.50461V6H6.50461C6.78425 6 7 5.77614 7 5.5C7 5.23193 6.77821 5 6.50461 5H6V4.49539C6 4.21575 5.77614 4 5.5 4C5.23193 4 5 4.22179 5 4.49539V5ZM3 3H4V4H3V3Z" fill="white"/>
<path d="M21 9H0V11H21V9Z" fill="#FFDA2C"/>
</svg>
